<mxfile host="app.diagrams.net" modified="2023-01-24T16:29:38.244Z" agent="5.0 (Macintosh; Intel Mac OS X 10_15_7) AppleWebKit/537.36 (KHTML, like Gecko) Chrome/108.0.0.0 Safari/537.36" version="20.6.2" etag="aVpPR9lcyHEDxaxquX5-" type="github">
  <diagram id="vSfG3Bbz5wh1IvuRuypC" name="Seite-1">
    <mxGraphModel dx="945" dy="1254" grid="1" gridSize="10" guides="1" tooltips="1" connect="1" arrows="1" fold="1" page="1" pageScale="1" pageWidth="827" pageHeight="1169" math="0" shadow="0">
      <root>
        <mxCell id="0" />
        <mxCell id="1" parent="0" />
      </root>
    </mxGraphModel>
  </diagram>
</mxfile>
